<?xml version="1.0" encoding="utf-8"?>
<!-- Generator: Adobe Illustrator 22.0.0, SVG Export Plug-In . SVG Version: 6.00 Build 0)  -->
<svg version="1.1" id="Camada_1" xmlns="http://www.w3.org/2000/svg" xmlns:xlink="http://www.w3.org/1999/xlink" x="0px" y="0px"
	 viewBox="0 0 432 432" style="enable-background:new 0 0 432 432;" xml:space="preserve">
<style type="text/css">
	.st0{fill:#0874B3;}
</style>
<path class="st0" d="M318.7,0H123.7c-3.3,0-6,2.7-6,6v13.8H70.5C55.3,19.8,43,32.1,43,47.3v357.1c0,15.2,12.3,27.5,27.5,27.5h290.6
	c15.2,0,27.5-12.3,27.5-27.5V47.3c0-15.2-12.3-27.5-27.5-27.5h-36.4V6C324.7,2.7,322,0,318.7,0z M129.7,12h182.9v25H129.7V12z
	 M361.1,31.8c8.6,0,15.5,7,15.5,15.5v357.1c0,8.6-7,15.5-15.5,15.5H70.5C62,420,55,413,55,404.5V47.3c0-8.6,7-15.5,15.5-15.5h47.2
	V43c0,3.3,2.7,6,6,6h194.9c3.3,0,6-2.7,6-6V31.8H361.1z"/>
<path class="st0" d="M329.4,212.1h-47.2c-3.3,0-6,2.7-6,6c0,3.3,2.7,6,6,6h47.2c3.3,0,6-2.7,6-6
	C335.4,214.8,332.7,212.1,329.4,212.1L329.4,212.1z"/>
<path class="st0" d="M144,212.1c-3.3,0-6,2.7-6,6c0,3.3,2.7,6,6,6h110.3c3.3,0,6-2.7,6-6c0-3.3-2.7-6-6-6H144z"/>
<path class="st0" d="M102.2,224.1h17.4c3.3,0,6-2.7,6-6c0-3.3-2.7-6-6-6h-17.4c-3.3,0-6,2.7-6,6C96.2,221.4,98.9,224.1,102.2,224.1z
	"/>
<path class="st0" d="M329.4,281.9H198.1c-3.3,0-6,2.7-6,6c0,3.3,2.7,6,6,6h131.3c3.3,0,6-2.7,6-6
	C335.4,284.6,332.7,281.9,329.4,281.9z"/>
<path class="st0" d="M102.2,293.9h68.1c3.3,0,6-2.7,6-6c0-3.3-2.7-6-6-6h-68.1c-3.3,0-6,2.7-6,6C96.2,291.2,98.9,293.9,102.2,293.9z
	"/>
<path class="st0" d="M329.4,346.5H324c-3.3,0-6,2.7-6,6s2.7,6,6,6h5.5c3.3,0,6-2.7,6-6S332.7,346.5,329.4,346.5z"/>
<path class="st0" d="M296.1,346.5h-11.3c-3.3,0-6,2.7-6,6s2.7,6,6,6h11.3c3.3,0,6-2.7,6-6S299.5,346.5,296.1,346.5z"/>
<path class="st0" d="M256.4,346.5H102.2c-3.3,0-6,2.7-6,6s2.7,6,6,6h154.2c3.3,0,6-2.7,6-6S259.7,346.5,256.4,346.5z"/>
<path class="st0" d="M102.2,169.1h98.1c3.3,0,6-2.7,6-6v-53.8c0-3.3-2.7-6-6-6h-98.1c-3.3,0-6,2.7-6,6v53.8
	C96.2,166.4,98.9,169.1,102.2,169.1z M108.2,115.3h86.1v41.8h-86.1V115.3z"/>
<path class="st0" d="M329.4,157.1h-4.2c-3.3,0-6,2.7-6,6s2.7,6,6,6h4.2c3.3,0,6-2.7,6-6S332.7,157.1,329.4,157.1z"/>
<path class="st0" d="M251.7,169.1h45.8c3.3,0,6-2.7,6-6s-2.7-6-6-6h-45.8c-3.3,0-6,2.7-6,6S248.3,169.1,251.7,169.1z"/>
<path class="st0" d="M277.3,109.3c0,3.3,2.7,6,6,6h46.1c3.3,0,6-2.7,6-6s-2.7-6-6-6h-46.1C280,103.3,277.3,106,277.3,109.3z"/>
<path class="st0" d="M251.7,115.3h3.8c3.3,0,6-2.7,6-6s-2.7-6-6-6h-3.8c-3.3,0-6,2.7-6,6S248.3,115.3,251.7,115.3z"/>
</svg>
