<?xml version="1.0" encoding="utf-8"?>
<!-- Generator: Adobe Illustrator 22.0.0, SVG Export Plug-In . SVG Version: 6.00 Build 0)  -->
<svg version="1.1" id="Capa_1" xmlns="http://www.w3.org/2000/svg" xmlns:xlink="http://www.w3.org/1999/xlink" x="0px" y="0px"
	 viewBox="0 0 512 512" style="enable-background:new 0 0 512 512;" xml:space="preserve">
<style type="text/css">
	.st0{fill:#0874B3;}
</style>
<g>
	<g>
		<g>
			<g>
				<circle class="st0" cx="338" cy="346" r="20"/>
				<path class="st0" d="M238,472H80c-22.1,0-40-17.9-40-40V268c0-22.1,17.9-40,40-40h288c22.1,0,40,17.9,40,40v40c0,11,9,20,20,20
					s20-9,20-20v-40c0-44.1-35.9-80-80-80h-24v-70.5C344,52.7,290.1,0,224,0S104,52.7,104,117.5V188H80c-44.1,0-80,35.9-80,80v164
					c0,44.1,35.9,80,80,80h158c11,0,20-9,20-20S249,472,238,472z M144,117.5c0-42.7,35.9-77.5,80-77.5s80,34.8,80,77.5V188H144
					L144,117.5L144,117.5z"/>
				<path class="st0" d="M503.6,325.7c-9-6.4-21.5-4.4-27.9,4.6l-98.6,137.7c-2.7,3.1-6.1,3.8-7.9,3.9c-1.9,0.1-5.4-0.1-8.6-3.1
					L297,406.7c-7.9-7.7-20.6-7.6-28.3,0.3c-7.7,7.9-7.6,20.6,0.3,28.3l63.8,62.3c0.1,0.1,0.1,0.1,0.2,0.2
					c9.6,9.1,22.3,14.2,35.5,14.2c1.1,0,2.3,0,3.4-0.1c14.3-1,27.7-7.9,36.7-19.1c0.2-0.3,0.5-0.6,0.7-0.9l99-138.3
					C514.7,344.7,512.6,332.2,503.6,325.7z"/>
				<circle class="st0" cx="262" cy="346" r="20"/>
				<circle class="st0" cx="112" cy="346" r="20"/>
				<circle class="st0" cx="187" cy="346" r="20"/>
			</g>
		</g>
	</g>
</g>
</svg>
